<svg width="84" height="84" viewBox="0 0 84 84" fill="none" xmlns="http://www.w3.org/2000/svg">
<g clip-path="url(#clip0_1188_446)">
<rect width="84" height="84" fill="#242424"/>
<path d="M7.65234 73V15.18H10.5923V73H7.65234ZM13.5323 73V15.18H22.3523V73H13.5323ZM25.2923 73V15.18H31.1723V73H25.2923ZM40 73V15.18H42.94V73H40ZM51.76 73V15.18H57.64V73H51.76ZM66.46 73V15.18H69.4V73H66.46Z" fill="black"/>
<path d="M3.56143 22.5455H12.7511L25.0579 52.5838H25.5437L37.8505 22.5455H47.0401V64H39.8342V35.5202H39.4496L27.9929 63.8786H22.6087L11.152 35.4595H10.7674V64H3.56143V22.5455ZM55.2177 64V22.5455H81.7745V28.8406H62.7273V40.0948H79.9528V46.3899H62.7273V64H55.2177Z" fill="white"/>
</g>
<defs>
<clipPath id="clip0_1188_446">
<rect width="84" height="84" fill="white"/>
</clipPath>
</defs>
</svg>
